<svg id="visual" viewBox="0 0 1920 1080" width="1920" height="1080" xmlns="http://www.w3.org/2000/svg" xmlns:xlink="http://www.w3.org/1999/xlink" version="1.1"><rect x="0" y="0" width="1920" height="1080" fill="#161616"></rect><path d="M0 555L13.8 537.8C27.7 520.7 55.3 486.3 83.2 489.2C111 492 139 532 166.8 552.5C194.7 573 222.3 574 250.2 580.2C278 586.3 306 597.7 333.8 595.2C361.7 592.7 389.3 576.3 417.2 579.5C445 582.7 473 605.3 500.8 618.8C528.7 632.3 556.3 636.7 584.2 628.3C612 620 640 599 667.8 582.2C695.7 565.3 723.3 552.7 751.2 563.2C779 573.7 807 607.3 834.8 594.8C862.7 582.3 890.3 523.7 918.2 493.8C946 464 974 463 1001.8 473.8C1029.7 484.7 1057.3 507.3 1085.2 516.3C1113 525.3 1141 520.7 1168.8 535C1196.7 549.3 1224.3 582.7 1252.2 586.8C1280 591 1308 566 1335.8 549.5C1363.7 533 1391.3 525 1419.2 514C1447 503 1475 489 1502.8 499.2C1530.7 509.3 1558.3 543.7 1586.2 539C1614 534.3 1642 490.7 1669.8 485.5C1697.7 480.3 1725.3 513.7 1753.2 529C1781 544.3 1809 541.7 1836.8 554.8C1864.7 568 1892.3 597 1906.2 611.5L1920 626L1920 1081L1906.2 1081C1892.3 1081 1864.7 1081 1836.8 1081C1809 1081 1781 1081 1753.2 1081C1725.3 1081 1697.7 1081 1669.8 1081C1642 1081 1614 1081 1586.2 1081C1558.3 1081 1530.7 1081 1502.8 1081C1475 1081 1447 1081 1419.2 1081C1391.3 1081 1363.7 1081 1335.8 1081C1308 1081 1280 1081 1252.2 1081C1224.3 1081 1196.7 1081 1168.8 1081C1141 1081 1113 1081 1085.2 1081C1057.3 1081 1029.7 1081 1001.8 1081C974 1081 946 1081 918.2 1081C890.3 1081 862.7 1081 834.8 1081C807 1081 779 1081 751.2 1081C723.3 1081 695.7 1081 667.8 1081C640 1081 612 1081 584.2 1081C556.3 1081 528.7 1081 500.8 1081C473 1081 445 1081 417.2 1081C389.3 1081 361.7 1081 333.8 1081C306 1081 278 1081 250.2 1081C222.3 1081 194.7 1081 166.8 1081C139 1081 111 1081 83.2 1081C55.3 1081 27.7 1081 13.8 1081L0 1081Z" fill="#715df2"></path><path d="M0 610L13.8 609.5C27.7 609 55.3 608 83.2 598C111 588 139 569 166.8 578.2C194.7 587.3 222.3 624.7 250.2 629.2C278 633.7 306 605.3 333.8 596.2C361.7 587 389.3 597 417.2 604C445 611 473 615 500.8 602.2C528.7 589.3 556.3 559.7 584.2 570.2C612 580.7 640 631.3 667.8 655.7C695.7 680 723.3 678 751.2 673.2C779 668.3 807 660.7 834.8 637.2C862.7 613.7 890.3 574.3 918.2 566.8C946 559.3 974 583.7 1001.8 608.8C1029.7 634 1057.3 660 1085.2 661.8C1113 663.7 1141 641.3 1168.8 641.8C1196.7 642.3 1224.3 665.7 1252.2 654.7C1280 643.7 1308 598.3 1335.8 589C1363.7 579.7 1391.3 606.3 1419.2 629C1447 651.7 1475 670.3 1502.8 679.7C1530.7 689 1558.3 689 1586.2 677.5C1614 666 1642 643 1669.8 632.5C1697.7 622 1725.3 624 1753.2 616.8C1781 609.7 1809 593.3 1836.8 590.3C1864.7 587.3 1892.3 597.7 1906.2 602.8L1920 608L1920 1081L1906.2 1081C1892.3 1081 1864.7 1081 1836.8 1081C1809 1081 1781 1081 1753.2 1081C1725.3 1081 1697.7 1081 1669.8 1081C1642 1081 1614 1081 1586.2 1081C1558.3 1081 1530.7 1081 1502.8 1081C1475 1081 1447 1081 1419.2 1081C1391.3 1081 1363.7 1081 1335.8 1081C1308 1081 1280 1081 1252.2 1081C1224.3 1081 1196.7 1081 1168.8 1081C1141 1081 1113 1081 1085.2 1081C1057.3 1081 1029.7 1081 1001.8 1081C974 1081 946 1081 918.2 1081C890.3 1081 862.7 1081 834.8 1081C807 1081 779 1081 751.2 1081C723.3 1081 695.7 1081 667.8 1081C640 1081 612 1081 584.2 1081C556.3 1081 528.7 1081 500.8 1081C473 1081 445 1081 417.2 1081C389.3 1081 361.7 1081 333.8 1081C306 1081 278 1081 250.2 1081C222.3 1081 194.7 1081 166.8 1081C139 1081 111 1081 83.2 1081C55.3 1081 27.7 1081 13.8 1081L0 1081Z" fill="#8562f4"></path><path d="M0 733L13.8 719.5C27.7 706 55.3 679 83.2 664.3C111 649.7 139 647.3 166.8 657.5C194.7 667.7 222.3 690.3 250.2 681.8C278 673.3 306 633.7 333.8 623.2C361.7 612.7 389.3 631.3 417.2 638.8C445 646.3 473 642.7 500.8 658.3C528.7 674 556.3 709 584.2 716.7C612 724.3 640 704.7 667.8 700.3C695.7 696 723.3 707 751.2 696C779 685 807 652 834.8 636C862.7 620 890.3 621 918.2 636.8C946 652.7 974 683.3 1001.8 685C1029.7 686.7 1057.3 659.3 1085.2 657C1113 654.7 1141 677.3 1168.8 683.7C1196.7 690 1224.3 680 1252.2 680.7C1280 681.3 1308 692.7 1335.8 680C1363.7 667.3 1391.3 630.7 1419.2 617.2C1447 603.7 1475 613.3 1502.8 621.3C1530.7 629.3 1558.3 635.7 1586.2 649.7C1614 663.7 1642 685.3 1669.8 692.5C1697.7 699.7 1725.3 692.3 1753.2 684.8C1781 677.3 1809 669.7 1836.8 672C1864.7 674.3 1892.3 686.7 1906.2 692.8L1920 699L1920 1081L1906.2 1081C1892.3 1081 1864.7 1081 1836.8 1081C1809 1081 1781 1081 1753.2 1081C1725.3 1081 1697.7 1081 1669.8 1081C1642 1081 1614 1081 1586.2 1081C1558.3 1081 1530.7 1081 1502.8 1081C1475 1081 1447 1081 1419.2 1081C1391.3 1081 1363.7 1081 1335.8 1081C1308 1081 1280 1081 1252.2 1081C1224.3 1081 1196.7 1081 1168.8 1081C1141 1081 1113 1081 1085.2 1081C1057.3 1081 1029.7 1081 1001.8 1081C974 1081 946 1081 918.2 1081C890.3 1081 862.7 1081 834.8 1081C807 1081 779 1081 751.2 1081C723.3 1081 695.7 1081 667.8 1081C640 1081 612 1081 584.2 1081C556.3 1081 528.7 1081 500.8 1081C473 1081 445 1081 417.2 1081C389.3 1081 361.7 1081 333.8 1081C306 1081 278 1081 250.2 1081C222.3 1081 194.7 1081 166.8 1081C139 1081 111 1081 83.2 1081C55.3 1081 27.7 1081 13.8 1081L0 1081Z" fill="#9867f6"></path><path d="M0 701L13.8 696C27.7 691 55.3 681 83.2 681.3C111 681.7 139 692.3 166.8 713.8C194.7 735.3 222.3 767.7 250.2 783.3C278 799 306 798 333.8 788.2C361.7 778.3 389.3 759.7 417.2 738.2C445 716.7 473 692.3 500.8 693.5C528.7 694.7 556.3 721.3 584.2 733.3C612 745.3 640 742.7 667.8 743.7C695.7 744.7 723.3 749.3 751.2 737.5C779 725.7 807 697.3 834.8 699.8C862.7 702.3 890.3 735.7 918.2 753.2C946 770.7 974 772.3 1001.8 777.5C1029.7 782.7 1057.3 791.3 1085.2 789.7C1113 788 1141 776 1168.8 763.8C1196.7 751.7 1224.3 739.3 1252.2 734.5C1280 729.7 1308 732.3 1335.8 743.5C1363.7 754.7 1391.3 774.3 1419.2 773.3C1447 772.3 1475 750.7 1502.8 737C1530.7 723.3 1558.3 717.7 1586.2 726.3C1614 735 1642 758 1669.8 769.5C1697.7 781 1725.3 781 1753.2 782.7C1781 784.3 1809 787.7 1836.8 778.3C1864.7 769 1892.3 747 1906.2 736L1920 725L1920 1081L1906.2 1081C1892.3 1081 1864.7 1081 1836.8 1081C1809 1081 1781 1081 1753.2 1081C1725.3 1081 1697.7 1081 1669.8 1081C1642 1081 1614 1081 1586.2 1081C1558.3 1081 1530.7 1081 1502.8 1081C1475 1081 1447 1081 1419.2 1081C1391.3 1081 1363.7 1081 1335.8 1081C1308 1081 1280 1081 1252.2 1081C1224.3 1081 1196.7 1081 1168.8 1081C1141 1081 1113 1081 1085.2 1081C1057.3 1081 1029.7 1081 1001.8 1081C974 1081 946 1081 918.2 1081C890.3 1081 862.7 1081 834.8 1081C807 1081 779 1081 751.2 1081C723.3 1081 695.7 1081 667.8 1081C640 1081 612 1081 584.2 1081C556.3 1081 528.7 1081 500.8 1081C473 1081 445 1081 417.2 1081C389.3 1081 361.7 1081 333.8 1081C306 1081 278 1081 250.2 1081C222.3 1081 194.7 1081 166.8 1081C139 1081 111 1081 83.2 1081C55.3 1081 27.7 1081 13.8 1081L0 1081Z" fill="#a86cf8"></path><path d="M0 769L13.8 780.5C27.7 792 55.3 815 83.2 829C111 843 139 848 166.8 848C194.7 848 222.3 843 250.2 831.3C278 819.7 306 801.3 333.8 790.8C361.7 780.3 389.3 777.7 417.2 776.8C445 776 473 777 500.8 775.5C528.7 774 556.3 770 584.2 764.2C612 758.3 640 750.7 667.8 748.3C695.7 746 723.3 749 751.2 763.7C779 778.3 807 804.7 834.8 808.8C862.7 813 890.3 795 918.2 797.3C946 799.7 974 822.3 1001.8 821C1029.7 819.7 1057.3 794.3 1085.2 782.5C1113 770.7 1141 772.3 1168.8 769.2C1196.7 766 1224.3 758 1252.2 766.8C1280 775.7 1308 801.3 1335.8 810.2C1363.7 819 1391.3 811 1419.2 798.7C1447 786.3 1475 769.7 1502.8 767.3C1530.7 765 1558.3 777 1586.2 793.5C1614 810 1642 831 1669.8 837.2C1697.7 843.3 1725.3 834.7 1753.2 828.8C1781 823 1809 820 1836.8 817.5C1864.7 815 1892.3 813 1906.2 812L1920 811L1920 1081L1906.2 1081C1892.3 1081 1864.7 1081 1836.8 1081C1809 1081 1781 1081 1753.2 1081C1725.3 1081 1697.7 1081 1669.8 1081C1642 1081 1614 1081 1586.2 1081C1558.3 1081 1530.7 1081 1502.8 1081C1475 1081 1447 1081 1419.2 1081C1391.3 1081 1363.7 1081 1335.8 1081C1308 1081 1280 1081 1252.2 1081C1224.3 1081 1196.7 1081 1168.8 1081C1141 1081 1113 1081 1085.2 1081C1057.3 1081 1029.7 1081 1001.8 1081C974 1081 946 1081 918.2 1081C890.3 1081 862.7 1081 834.8 1081C807 1081 779 1081 751.2 1081C723.3 1081 695.7 1081 667.8 1081C640 1081 612 1081 584.2 1081C556.3 1081 528.7 1081 500.8 1081C473 1081 445 1081 417.2 1081C389.3 1081 361.7 1081 333.8 1081C306 1081 278 1081 250.2 1081C222.3 1081 194.7 1081 166.8 1081C139 1081 111 1081 83.2 1081C55.3 1081 27.7 1081 13.8 1081L0 1081Z" fill="#b872fa"></path><path d="M0 907L13.8 891.2C27.7 875.3 55.3 843.7 83.2 832.5C111 821.3 139 830.7 166.8 833.5C194.7 836.3 222.3 832.7 250.2 842.3C278 852 306 875 333.8 873.5C361.7 872 389.3 846 417.2 834.8C445 823.7 473 827.3 500.8 826.8C528.7 826.3 556.3 821.7 584.2 818.5C612 815.3 640 813.7 667.8 820.8C695.7 828 723.3 844 751.2 849.2C779 854.3 807 848.7 834.8 850.3C862.7 852 890.3 861 918.2 859.5C946 858 974 846 1001.8 847.7C1029.7 849.3 1057.3 864.7 1085.2 870.3C1113 876 1141 872 1168.8 872.5C1196.7 873 1224.3 878 1252.2 873.7C1280 869.3 1308 855.7 1335.8 857.3C1363.7 859 1391.3 876 1419.2 878.3C1447 880.7 1475 868.3 1502.8 857C1530.7 845.7 1558.3 835.3 1586.2 829.8C1614 824.3 1642 823.7 1669.8 821.2C1697.7 818.7 1725.3 814.3 1753.2 823.8C1781 833.3 1809 856.7 1836.8 866.7C1864.7 876.7 1892.3 873.3 1906.2 871.7L1920 870L1920 1081L1906.2 1081C1892.3 1081 1864.7 1081 1836.8 1081C1809 1081 1781 1081 1753.2 1081C1725.3 1081 1697.7 1081 1669.8 1081C1642 1081 1614 1081 1586.2 1081C1558.3 1081 1530.7 1081 1502.8 1081C1475 1081 1447 1081 1419.2 1081C1391.3 1081 1363.7 1081 1335.8 1081C1308 1081 1280 1081 1252.2 1081C1224.3 1081 1196.7 1081 1168.8 1081C1141 1081 1113 1081 1085.2 1081C1057.3 1081 1029.7 1081 1001.8 1081C974 1081 946 1081 918.2 1081C890.3 1081 862.7 1081 834.8 1081C807 1081 779 1081 751.2 1081C723.3 1081 695.7 1081 667.8 1081C640 1081 612 1081 584.2 1081C556.3 1081 528.7 1081 500.8 1081C473 1081 445 1081 417.2 1081C389.3 1081 361.7 1081 333.8 1081C306 1081 278 1081 250.2 1081C222.3 1081 194.7 1081 166.8 1081C139 1081 111 1081 83.2 1081C55.3 1081 27.7 1081 13.8 1081L0 1081Z" fill="#c678fc"></path><path d="M0 928L13.8 921.2C27.7 914.3 55.3 900.7 83.2 898.2C111 895.7 139 904.3 166.8 906C194.7 907.7 222.3 902.3 250.2 900.2C278 898 306 899 333.8 903.2C361.7 907.3 389.3 914.7 417.2 911.7C445 908.7 473 895.3 500.8 889C528.7 882.7 556.3 883.3 584.2 896C612 908.7 640 933.3 667.8 937.7C695.7 942 723.3 926 751.2 923.3C779 920.7 807 931.3 834.8 938.7C862.7 946 890.3 950 918.2 945.8C946 941.7 974 929.3 1001.8 919.5C1029.7 909.7 1057.3 902.3 1085.2 897.3C1113 892.3 1141 889.7 1168.8 894.7C1196.7 899.7 1224.3 912.3 1252.2 914.5C1280 916.7 1308 908.3 1335.8 912.3C1363.7 916.3 1391.3 932.7 1419.2 941.2C1447 949.7 1475 950.3 1502.8 942.7C1530.7 935 1558.3 919 1586.2 918.5C1614 918 1642 933 1669.8 940.3C1697.7 947.7 1725.3 947.3 1753.2 947C1781 946.7 1809 946.3 1836.8 937.7C1864.7 929 1892.3 912 1906.2 903.5L1920 895L1920 1081L1906.2 1081C1892.3 1081 1864.7 1081 1836.8 1081C1809 1081 1781 1081 1753.2 1081C1725.3 1081 1697.7 1081 1669.8 1081C1642 1081 1614 1081 1586.2 1081C1558.3 1081 1530.7 1081 1502.8 1081C1475 1081 1447 1081 1419.2 1081C1391.3 1081 1363.7 1081 1335.8 1081C1308 1081 1280 1081 1252.2 1081C1224.3 1081 1196.7 1081 1168.8 1081C1141 1081 1113 1081 1085.2 1081C1057.3 1081 1029.7 1081 1001.8 1081C974 1081 946 1081 918.2 1081C890.3 1081 862.7 1081 834.8 1081C807 1081 779 1081 751.2 1081C723.3 1081 695.7 1081 667.8 1081C640 1081 612 1081 584.2 1081C556.3 1081 528.7 1081 500.8 1081C473 1081 445 1081 417.2 1081C389.3 1081 361.7 1081 333.8 1081C306 1081 278 1081 250.2 1081C222.3 1081 194.7 1081 166.8 1081C139 1081 111 1081 83.2 1081C55.3 1081 27.7 1081 13.8 1081L0 1081Z" fill="#d47ffd"></path><path d="M0 967L13.8 967.7C27.7 968.3 55.3 969.7 83.2 971C111 972.3 139 973.7 166.8 971.3C194.7 969 222.3 963 250.2 963.3C278 963.7 306 970.3 333.8 974.7C361.7 979 389.3 981 417.2 984.2C445 987.3 473 991.7 500.8 987.3C528.7 983 556.3 970 584.2 963.2C612 956.3 640 955.7 667.8 956.5C695.7 957.3 723.3 959.7 751.2 963.7C779 967.7 807 973.3 834.8 980.3C862.7 987.3 890.3 995.7 918.2 992.3C946 989 974 974 1001.8 965.7C1029.7 957.3 1057.3 955.7 1085.2 960.3C1113 965 1141 976 1168.8 983.8C1196.7 991.7 1224.3 996.3 1252.2 991.5C1280 986.7 1308 972.3 1335.8 971.5C1363.7 970.7 1391.3 983.3 1419.2 988C1447 992.7 1475 989.3 1502.8 985C1530.7 980.7 1558.3 975.3 1586.2 973.5C1614 971.7 1642 973.3 1669.8 976.7C1697.7 980 1725.3 985 1753.2 984.8C1781 984.7 1809 979.3 1836.8 973.7C1864.7 968 1892.3 962 1906.2 959L1920 956L1920 1081L1906.2 1081C1892.3 1081 1864.7 1081 1836.8 1081C1809 1081 1781 1081 1753.2 1081C1725.3 1081 1697.7 1081 1669.8 1081C1642 1081 1614 1081 1586.2 1081C1558.3 1081 1530.7 1081 1502.8 1081C1475 1081 1447 1081 1419.2 1081C1391.3 1081 1363.7 1081 1335.8 1081C1308 1081 1280 1081 1252.2 1081C1224.3 1081 1196.7 1081 1168.8 1081C1141 1081 1113 1081 1085.2 1081C1057.3 1081 1029.7 1081 1001.8 1081C974 1081 946 1081 918.2 1081C890.3 1081 862.7 1081 834.8 1081C807 1081 779 1081 751.2 1081C723.3 1081 695.7 1081 667.8 1081C640 1081 612 1081 584.2 1081C556.3 1081 528.7 1081 500.8 1081C473 1081 445 1081 417.2 1081C389.3 1081 361.7 1081 333.8 1081C306 1081 278 1081 250.2 1081C222.3 1081 194.7 1081 166.8 1081C139 1081 111 1081 83.2 1081C55.3 1081 27.7 1081 13.8 1081L0 1081Z" fill="#e186ff"></path></svg>